<svg id="visual" viewBox="0 0 900 600" width="900" height="600" xmlns="http://www.w3.org/2000/svg" xmlns:xlink="http://www.w3.org/1999/xlink" version="1.1"><rect x="0" y="0" width="900" height="600" fill="#000000"></rect><path d="M326 0L318.3 10C310.7 20 295.3 40 316.5 60C337.7 80 395.3 100 405.5 120C415.7 140 378.3 160 342.2 180C306 200 271 220 254.8 240C238.7 260 241.3 280 261.8 300C282.3 320 320.7 340 323.2 360C325.7 380 292.3 400 283.7 420C275 440 291 460 296.7 480C302.3 500 297.7 520 296 540C294.3 560 295.7 580 296.3 590L297 600L0 600L0 590C0 580 0 560 0 540C0 520 0 500 0 480C0 460 0 440 0 420C0 400 0 380 0 360C0 340 0 320 0 300C0 280 0 260 0 240C0 220 0 200 0 180C0 160 0 140 0 120C0 100 0 80 0 60C0 40 0 20 0 10L0 0Z" fill="#c10000"></path><path d="M211 0L219.5 10C228 20 245 40 242 60C239 80 216 100 224.8 120C233.7 140 274.3 160 295 180C315.7 200 316.3 220 301 240C285.7 260 254.3 280 239.3 300C224.3 320 225.7 340 234.5 360C243.3 380 259.7 400 277.8 420C296 440 316 460 326.7 480C337.3 500 338.7 520 336.5 540C334.3 560 328.7 580 325.8 590L323 600L0 600L0 590C0 580 0 560 0 540C0 520 0 500 0 480C0 460 0 440 0 420C0 400 0 380 0 360C0 340 0 320 0 300C0 280 0 260 0 240C0 220 0 200 0 180C0 160 0 140 0 120C0 100 0 80 0 60C0 40 0 20 0 10L0 0Z" fill="#a80404"></path><path d="M169 0L191 10C213 20 257 40 272.5 60C288 80 275 100 277.8 120C280.7 140 299.3 160 298.3 180C297.3 200 276.7 220 271 240C265.3 260 274.7 280 258 300C241.3 320 198.7 340 195.8 360C193 380 230 400 257.7 420C285.3 440 303.7 460 292.5 480C281.3 500 240.7 520 230.7 540C220.7 560 241.3 580 251.7 590L262 600L0 600L0 590C0 580 0 560 0 540C0 520 0 500 0 480C0 460 0 440 0 420C0 400 0 380 0 360C0 340 0 320 0 300C0 280 0 260 0 240C0 220 0 200 0 180C0 160 0 140 0 120C0 100 0 80 0 60C0 40 0 20 0 10L0 0Z" fill="#8f0807"></path><path d="M167 0L166 10C165 20 163 40 173.5 60C184 80 207 100 220.8 120C234.7 140 239.3 160 222.7 180C206 200 168 220 157.7 240C147.3 260 164.7 280 173.8 300C183 320 184 340 196.2 360C208.3 380 231.7 400 234.3 420C237 440 219 460 202.7 480C186.3 500 171.7 520 160.8 540C150 560 143 580 139.5 590L136 600L0 600L0 590C0 580 0 560 0 540C0 520 0 500 0 480C0 460 0 440 0 420C0 400 0 380 0 360C0 340 0 320 0 300C0 280 0 260 0 240C0 220 0 200 0 180C0 160 0 140 0 120C0 100 0 80 0 60C0 40 0 20 0 10L0 0Z" fill="#770a07"></path><path d="M126 0L122.8 10C119.7 20 113.3 40 119.7 60C126 80 145 100 149.3 120C153.7 140 143.3 160 143.2 180C143 200 153 220 153.3 240C153.7 260 144.3 280 134.5 300C124.7 320 114.3 340 109.8 360C105.3 380 106.7 400 113.3 420C120 440 132 460 143.2 480C154.3 500 164.7 520 172.3 540C180 560 185 580 187.5 590L190 600L0 600L0 590C0 580 0 560 0 540C0 520 0 500 0 480C0 460 0 440 0 420C0 400 0 380 0 360C0 340 0 320 0 300C0 280 0 260 0 240C0 220 0 200 0 180C0 160 0 140 0 120C0 100 0 80 0 60C0 40 0 20 0 10L0 0Z" fill="#600b05"></path><path d="M71 0L79.8 10C88.7 20 106.3 40 104.3 60C102.3 80 80.7 100 76.3 120C72 140 85 160 90.7 180C96.3 200 94.7 220 94 240C93.3 260 93.7 280 89.8 300C86 320 78 340 81 360C84 380 98 400 101.3 420C104.7 440 97.3 460 98.7 480C100 500 110 520 107.5 540C105 560 90 580 82.5 590L75 600L0 600L0 590C0 580 0 560 0 540C0 520 0 500 0 480C0 460 0 440 0 420C0 400 0 380 0 360C0 340 0 320 0 300C0 280 0 260 0 240C0 220 0 200 0 180C0 160 0 140 0 120C0 100 0 80 0 60C0 40 0 20 0 10L0 0Z" fill="#490a01"></path></svg>