<svg id="visual" viewBox="0 0 900 600" width="900" height="600" xmlns="http://www.w3.org/2000/svg" xmlns:xlink="http://www.w3.org/1999/xlink" version="1.1"><rect x="0" y="0" width="900" height="600" fill="#000000"></rect><path d="M576 600L583.7 590C591.3 580 606.7 560 585.5 540C564.3 520 506.7 500 496.5 480C486.3 460 523.7 440 559.8 420C596 400 631 380 647.2 360C663.3 340 660.7 320 640.2 300C619.7 280 581.3 260 578.8 240C576.3 220 609.7 200 618.3 180C627 160 611 140 605.3 120C599.7 100 604.3 80 606 60C607.7 40 606.3 20 605.7 10L605 0L900 0L900 10C900 20 900 40 900 60C900 80 900 100 900 120C900 140 900 160 900 180C900 200 900 220 900 240C900 260 900 280 900 300C900 320 900 340 900 360C900 380 900 400 900 420C900 440 900 460 900 480C900 500 900 520 900 540C900 560 900 580 900 590L900 600Z" fill="#c10000"></path><path d="M691 600L682.5 590C674 580 657 560 660 540C663 520 686 500 677.2 480C668.3 460 627.7 440 607 420C586.3 400 585.7 380 601 360C616.3 340 647.7 320 662.7 300C677.7 280 676.3 260 667.5 240C658.7 220 642.3 200 624.2 180C606 160 586 140 575.3 120C564.7 100 563.3 80 565.5 60C567.7 40 573.3 20 576.2 10L579 0L900 0L900 10C900 20 900 40 900 60C900 80 900 100 900 120C900 140 900 160 900 180C900 200 900 220 900 240C900 260 900 280 900 300C900 320 900 340 900 360C900 380 900 400 900 420C900 440 900 460 900 480C900 500 900 520 900 540C900 560 900 580 900 590L900 600Z" fill="#a80404"></path><path d="M733 600L711 590C689 580 645 560 629.5 540C614 520 627 500 624.2 480C621.3 460 602.7 440 603.7 420C604.7 400 625.3 380 631 360C636.7 340 627.3 320 644 300C660.7 280 703.3 260 706.2 240C709 220 672 200 644.3 180C616.7 160 598.3 140 609.5 120C620.7 100 661.3 80 671.3 60C681.3 40 660.7 20 650.3 10L640 0L900 0L900 10C900 20 900 40 900 60C900 80 900 100 900 120C900 140 900 160 900 180C900 200 900 220 900 240C900 260 900 280 900 300C900 320 900 340 900 360C900 380 900 400 900 420C900 440 900 460 900 480C900 500 900 520 900 540C900 560 900 580 900 590L900 600Z" fill="#8f0807"></path><path d="M735 600L736 590C737 580 739 560 728.5 540C718 520 695 500 681.2 480C667.3 460 662.7 440 679.3 420C696 400 734 380 744.3 360C754.7 340 737.3 320 728.2 300C719 280 718 260 705.8 240C693.7 220 670.3 200 667.7 180C665 160 683 140 699.3 120C715.7 100 730.3 80 741.2 60C752 40 759 20 762.5 10L766 0L900 0L900 10C900 20 900 40 900 60C900 80 900 100 900 120C900 140 900 160 900 180C900 200 900 220 900 240C900 260 900 280 900 300C900 320 900 340 900 360C900 380 900 400 900 420C900 440 900 460 900 480C900 500 900 520 900 540C900 560 900 580 900 590L900 600Z" fill="#770a07"></path><path d="M776 600L779.2 590C782.3 580 788.7 560 782.3 540C776 520 757 500 752.7 480C748.3 460 758.7 440 758.8 420C759 400 749 380 748.7 360C748.3 340 757.7 320 767.5 300C777.3 280 787.7 260 792.2 240C796.7 220 795.3 200 788.7 180C782 160 770 140 758.8 120C747.7 100 737.3 80 729.7 60C722 40 717 20 714.5 10L712 0L900 0L900 10C900 20 900 40 900 60C900 80 900 100 900 120C900 140 900 160 900 180C900 200 900 220 900 240C900 260 900 280 900 300C900 320 900 340 900 360C900 380 900 400 900 420C900 440 900 460 900 480C900 500 900 520 900 540C900 560 900 580 900 590L900 600Z" fill="#600b05"></path><path d="M831 600L822.2 590C813.3 580 795.7 560 797.7 540C799.7 520 821.3 500 825.7 480C830 460 817 440 811.3 420C805.7 400 807.3 380 808 360C808.7 340 808.3 320 812.2 300C816 280 824 260 821 240C818 220 804 200 800.7 180C797.3 160 804.7 140 803.3 120C802 100 792 80 794.5 60C797 40 812 20 819.5 10L827 0L900 0L900 10C900 20 900 40 900 60C900 80 900 100 900 120C900 140 900 160 900 180C900 200 900 220 900 240C900 260 900 280 900 300C900 320 900 340 900 360C900 380 900 400 900 420C900 440 900 460 900 480C900 500 900 520 900 540C900 560 900 580 900 590L900 600Z" fill="#490a01"></path></svg>